<svg width="512" height="512" viewBox="0 0 512 512" xmlns="http://www.w3.org/2000/svg">
  <!-- 背景渐变 -->
  <defs>
    <linearGradient id="bgGradient" x1="0%" y1="0%" x2="100%" y2="100%">
      <stop offset="0%" style="stop-color:#4CAF50;stop-opacity:1" />
      <stop offset="100%" style="stop-color:#2196F3;stop-opacity:1" />
    </linearGradient>
  </defs>
  
  <!-- 背景圆形 -->
  <circle cx="256" cy="256" r="240" fill="url(#bgGradient)" stroke="none"/>
  
  <!-- 机器人头部 -->
  <rect x="180" y="160" width="152" height="120" rx="20" fill="white" opacity="0.9"/>
  
  <!-- 机器人眼睛 -->
  <circle cx="210" cy="200" r="12" fill="#2196F3"/>
  <circle cx="302" cy="200" r="12" fill="#2196F3"/>
  
  <!-- 机器人嘴巴 -->
  <rect x="220" y="240" width="72" height="8" rx="4" fill="#4CAF50"/>
  
  <!-- 日历图标 -->
  <rect x="200" y="320" width="112" height="96" rx="8" fill="white" opacity="0.9"/>
  <rect x="200" y="320" width="112" height="24" rx="8" fill="#FF9800"/>
  
  <!-- 日历日期格子 -->
  <rect x="210" y="355" width="15" height="15" fill="#666"/>
  <rect x="230" y="355" width="15" height="15" fill="#666"/>
  <rect x="250" y="355" width="15" height="15" fill="#4CAF50"/>
  <rect x="270" y="355" width="15" height="15" fill="#666"/>
  <rect x="290" y="355" width="15" height="15" fill="#666"/>
  
  <rect x="210" y="375" width="15" height="15" fill="#666"/>
  <rect x="230" y="375" width="15" height="15" fill="#666"/>
  <rect x="250" y="375" width="15" height="15" fill="#666"/>
  <rect x="270" y="375" width="15" height="15" fill="#666"/>
  <rect x="290" y="375" width="15" height="15" fill="#666"/>
  
  <!-- AI闪电符号 -->
  <path d="M350 180 L370 200 L360 210 L380 230 L350 220 L360 210 L340 190 Z" fill="#FFD700" opacity="0.8"/>
</svg> 